<svg width="588" height="173" fill="none" xmlns="http://www.w3.org/2000/svg"><path opacity=".4" d="M584.563 205.265C541.141 82.475 424.361 0 294 0S46.883 82.5 3.437 205.265L0 215h588l-3.437-9.735zm-76.96-98.416c-53.33 57.699-127.873 91.452-206.303 93.442v-85.673c52.903-1.8 101.919-23.142 139.321-60.684a293.925 293.925 0 0166.982 52.915zM301.3 14.733c44.702 1.113 87.579 12.388 125.905 31.953-34.249 32.876-78.382 51.565-125.905 53.317v-85.27zm-14.624 85.27c-47.523-1.752-91.679-20.417-125.905-53.317 38.35-19.565 81.203-30.84 125.905-31.953v85.27zm-139.32-46.07c37.425 37.543 86.417 58.885 139.32 60.685v85.673c-78.43-1.966-152.973-35.719-206.302-93.442a294.938 294.938 0 0166.982-52.916zm-76.748 63.811c22.257 23.876 47.95 43.844 76.013 59.311a311.725 311.725 0 0031.215 14.969c7.49 3.08 16.307 5.353 25.717 7.011.83.143.735 1.351-.118 1.351H20.881c12.065-30.627 29.012-58.411 49.727-82.642zm314.076 82.642c-.83 0-.948-1.208-.118-1.374 9.291-1.658 18.013-3.885 25.432-6.94a307.305 307.305 0 0029.722-14.117c28.727-15.586 54.989-35.885 77.672-60.211 20.715 24.231 37.662 52.015 49.727 82.642H384.684z" fill="#E2E6ED"/></svg>